<?xml version="1.0" standalone="no"?>
<!DOCTYPE svg PUBLIC "-//W3C//DTD SVG 20010904//EN"
 "http://www.w3.org/TR/2001/REC-SVG-20010904/DTD/svg10.dtd">
<svg version="1.0" xmlns="http://www.w3.org/2000/svg"
 width="5721.000000pt" height="3754.000000pt" viewBox="0 0 5721.000000 3754.000000"
 preserveAspectRatio="xMidYMid meet">
<metadata>
Created by potrace 1.16, written by Peter Selinger 2001-2019
</metadata>
<g transform="translate(0.000000,3754.000000) scale(0.100000,-0.100000)"
fill="#000000" stroke="none">
<path d="M0 25550 c0 -6594 3 -11990 6 -11990 4 0 48 40 98 90 90 88 94 90
172 110 43 11 117 23 164 26 47 3 729 7 1515 8 l1430 1 165 28 165 27 610 0
611 0 237 65 c365 99 420 109 557 102 107 -6 204 -23 495 -88 145 -33 334 -31
465 4 315 84 371 96 493 106 287 25 783 4 1072 -45 50 -8 169 -37 265 -64 214
-61 337 -87 472 -101 134 -14 229 -6 440 38 171 35 177 36 498 43 237 5 345
11 400 23 244 52 713 70 915 35 55 -10 183 -22 285 -28 178 -10 228 -17 388
-56 l74 -18 311 77 312 78 402 -1 c360 0 413 2 520 21 341 59 489 74 663 66
159 -7 246 -25 445 -93 311 -108 371 -126 465 -144 183 -36 326 -43 690 -36
190 3 543 9 785 12 359 4 463 9 565 24 327 50 723 72 912 51 61 -7 173 -30
265 -56 181 -50 297 -75 346 -75 19 0 77 11 128 24 93 24 98 25 759 31 l665 7
305 83 305 84 825 4 c801 4 833 4 1100 30 151 15 296 27 322 27 32 0 115 -22
245 -64 109 -36 225 -73 258 -82 53 -15 127 -18 650 -21 l589 -4 192 -55 c105
-30 207 -54 225 -54 19 0 72 7 119 16 51 10 172 19 305 23 l220 7 130 51 130
51 420 62 c231 34 458 72 505 85 242 68 297 71 560 31 199 -31 706 -78 905
-86 192 -7 205 -8 325 -44 285 -86 221 -79 755 -83 l480 -4 185 -57 185 -57
418 -3 c240 -2 417 1 417 6 0 5 -45 123 -100 263 -110 278 -131 360 -150 574
-6 72 -16 168 -22 215 -7 51 -13 421 -17 930 l-6 845 -87 270 -86 270 -8 245
c-15 499 -10 799 20 1100 15 151 30 350 33 443 l6 167 209 0 c326 0 478 23
578 89 25 16 83 63 130 105 168 150 224 166 569 166 200 0 275 4 373 19 210
34 365 41 948 47 403 4 598 9 680 20 292 36 332 37 1840 44 1473 6 1508 7
1635 28 409 67 967 91 2095 92 499 0 669 4 750 15 58 7 177 24 265 36 118 17
207 23 340 23 161 0 199 -4 360 -34 170 -31 197 -33 490 -40 282 -6 321 -9
435 -33 114 -24 145 -27 358 -27 l232 0 338 -61 c304 -55 354 -62 509 -66 205
-6 307 4 566 58 279 58 393 76 567 88 85 7 240 21 344 32 239 26 322 18 596
-53 l195 -51 215 -7 c204 -7 228 -10 475 -58 298 -59 452 -98 562 -142 221
-88 379 -222 543 -460 32 -47 86 -112 120 -145 112 -110 103 -70 117 -540 11
-392 12 -414 37 -504 14 -52 26 -115 26 -139 l0 -44 53 6 c28 4 139 11 245 16
l193 9 287 95 287 95 247 3 246 3 174 87 c187 95 249 114 343 105 110 -11 169
-47 321 -202 61 -61 120 -110 145 -122 38 -18 95 -24 404 -43 l360 -23 52 -33
c152 -96 277 -269 513 -709 128 -238 163 -295 278 -450 139 -186 177 -286 188
-495 8 -140 -18 -289 -91 -524 -83 -264 -105 -368 -181 -829 -28 -172 -35
-248 -39 -407 -6 -218 -17 -276 -64 -327 l-30 -33 27 -7 c50 -14 166 -5 268
21 l100 25 530 1 529 1 215 -52 215 -53 380 -6 c331 -5 393 -9 480 -27 210
-44 347 -57 620 -57 344 -1 553 25 905 114 107 27 225 48 380 66 124 15 231
32 238 37 9 8 12 2388 12 11843 l0 11834 -28605 0 -28605 0 0 -11990z"/>
<path d="M50130 16841 c-28 -17 -364 -139 -500 -181 -80 -25 -195 -51 -283
-64 -145 -22 -149 -24 -186 -60 -21 -21 -67 -88 -101 -149 -59 -105 -68 -116
-142 -170 -73 -53 -83 -65 -113 -130 -18 -40 -60 -153 -93 -252 -54 -162 -72
-199 -168 -365 -76 -130 -121 -220 -151 -303 -93 -258 -123 -291 -279 -304
l-76 -6 -34 -46 c-93 -126 -227 -460 -260 -651 -28 -166 -10 -325 44 -373 48
-44 201 -68 611 -97 313 -23 329 -26 496 -95 154 -65 229 -52 520 83 241 113
238 112 519 112 151 0 329 8 476 20 129 11 254 20 276 20 l42 0 7 -70 c5 -54
11 -70 23 -70 34 0 80 51 131 146 29 55 58 106 64 114 7 8 50 40 97 71 l85 56
220 332 c174 261 225 332 245 336 68 15 75 20 89 64 22 70 -3 164 -98 357
l-79 161 -7 199 c-8 230 -11 242 -101 405 -35 63 -64 127 -64 142 0 15 9 60
20 99 38 137 26 180 -107 380 -57 87 -96 157 -107 194 -10 33 -19 64 -21 70
-5 17 -57 24 -106 13 -24 -6 -89 -34 -144 -64 -55 -29 -124 -60 -154 -69 -116
-34 -218 -13 -320 67 -31 24 -72 52 -91 62 -39 20 -157 31 -180 16z"/>
</g>
</svg>
